<svg width="40" height="40" viewBox="0 0 40 40" fill="none" xmlns="http://www.w3.org/2000/svg">
<path d="M6 14.8148C6 11.9511 8.37168 9.62963 11.2973 9.62963H28.7027C31.6283 9.62963 34 11.9511 34 14.8148V34.8148C34 37.6785 31.6283 40 28.7027 40H11.2973C8.37168 40 6 37.6785 6 34.8148V14.8148Z" fill="#E82424"/>
<path d="M6 4.81481C6 3.38297 7.18584 2.22222 8.64865 2.22222H31.3514C32.8142 2.22222 34 3.38297 34 4.81481C34 6.24666 32.8142 7.40741 31.3514 7.40741H8.64865C7.18584 7.40741 6 6.24666 6 4.81481Z" fill="#E82424"/>
<path d="M13.5676 2.59259C13.5676 1.16074 14.7534 0 16.2162 0H23.7838C25.2466 0 26.4324 1.16074 26.4324 2.59259C26.4324 4.02444 25.2466 5.18519 23.7838 5.18519H16.2162C14.7534 5.18519 13.5676 4.02444 13.5676 2.59259Z" fill="#E82424"/>
</svg>
